<?xml version="1.0" standalone="no"?>
<!DOCTYPE svg PUBLIC "-//W3C//DTD SVG 20010904//EN"
 "http://www.w3.org/TR/2001/REC-SVG-20010904/DTD/svg10.dtd">
<svg version="1.0" xmlns="http://www.w3.org/2000/svg"
 width="144.000000pt" height="144.000000pt" viewBox="0 0 144.000000 144.000000"
 preserveAspectRatio="xMidYMid meet">

<g transform="translate(0.000000,144.000000) scale(0.100000,-0.100000)"
fill="#000000" stroke="none">
<path d="M662 1319 c-96 -49 -128 -169 -69 -259 21 -30 43 -48 78 -63 l49 -21
0 -58 0 -58 -120 0 c-113 0 -120 -1 -120 -20 0 -19 7 -20 120 -20 l120 0 0
-177 0 -178 -125 -143 c-69 -79 -125 -145 -125 -147 0 -1 6 -8 14 -14 10 -9
37 17 130 124 64 74 121 135 126 135 4 0 61 -61 125 -134 77 -90 121 -133 131
-129 8 3 14 9 14 13 0 5 -56 74 -125 153 l-125 145 0 176 0 176 120 0 c113 0
120 1 120 20 0 19 -7 20 -120 20 l-120 0 0 59 c0 57 1 60 28 66 39 8 96 57
116 99 70 148 -96 310 -242 235z m146 -39 c42 -26 72 -76 72 -120 0 -44 -30
-94 -72 -120 -117 -71 -259 71 -188 188 26 42 76 72 120 72 19 0 50 -9 68 -20z"/>
</g>
</svg>
