<svg xmlns="http://www.w3.org/2000/svg" viewBox="0 0 144 144">
  <path d="M66.2 12.1C56.6 17 53.4 29 59.3 38c2.1 3 4.3 4.8 7.8 6.3l4.9 2.1V58H60c-11.3 0-12 .1-12 2s.7 2 12 2h12v35.5l-12.5 14.3c-6.9 7.9-12.5 14.5-12.5 14.7 0 .1.6.8 1.4 1.4 1 .9 3.7-1.7 13-12.4C67.8 108.1 73.5 102 74 102c.4 0 6.1 6.1 12.5 13.4 7.7 9 12.1 13.3 13.1 12.9.8-.3 1.4-.9 1.4-1.3 0-.5-5.6-7.4-12.5-15.3L76 97.2V62h12c11.3 0 12-.1 12-2s-.7-2-12-2H76v-5.9c0-5.7.1-6 2.8-6.6 3.9-.8 9.6-5.7 11.6-9.9 7-14.8-9.6-31-24.2-23.5zM80.8 16C85 18.6 88 23.6 88 28s-3 9.4-7.2 12C69.1 47.1 54.9 32.9 62 21.2 64.6 17 69.6 14 74 14c1.9 0 5 .9 6.8 2z"/>
</svg>
