<svg width="48" height="48" viewBox="0 0 48 48" fill="none" xmlns="http://www.w3.org/2000/svg">
<path d="M13 36.5C13 38.1569 11.6569 39.5 10 39.5C8.34315 39.5 7 38.1569 7 36.5C7 34.8431 8.34315 33.5 10 33.5C11.6569 33.5 13 34.8431 13 36.5Z" fill="black"/>
<path d="M41 36.5C41 38.1569 39.6569 39.5 38 39.5C36.3431 39.5 35 38.1569 35 36.5C35 34.8431 36.3431 33.5 38 33.5C39.6569 33.5 41 34.8431 41 36.5Z" fill="black"/>
<path fill-rule="evenodd" clip-rule="evenodd" d="M5.23463 3.15224C4.48728 3.4618 4 4.19107 4 5V30C4 31.1046 4.89543 32 6 32C7.10457 32 8 31.1046 8 30V9.82843L12 13.8284V29.4444C12 30.549 12.8954 31.4444 14 31.4444C15.1046 31.4444 16 30.549 16 29.4444V13C16 12.4696 15.7893 11.9609 15.4142 11.5858L7.41421 3.58579C6.84222 3.01379 5.98198 2.84268 5.23463 3.15224Z" fill="black"/>
<path fill-rule="evenodd" clip-rule="evenodd" d="M36.5858 3.58579C37.3668 2.80474 38.6332 2.80474 39.4142 3.58579L43.4142 7.58579C43.8056 7.9772 44.0173 8.51332 43.9989 9.06656C43.9805 9.61979 43.7336 10.1406 43.317 10.5052L41.0372 12.5L43.317 14.4948C43.751 14.8746 44 15.4233 44 16C44 16.5767 43.751 17.1254 43.317 17.5052L41.0372 19.5L43.317 21.4948C43.751 21.8746 44 22.4233 44 23C44 23.5767 43.751 24.1254 43.317 24.5052L40 27.4075V29.5C40 30.6046 39.1046 31.5 38 31.5C36.8954 31.5 36 30.6046 36 29.5V26.5C36 25.9233 36.249 25.3746 36.683 24.9948L38.9628 23L36.683 21.0052C36.249 20.6254 36 20.0767 36 19.5C36 18.9233 36.249 18.3746 36.683 17.9948L38.9628 16L36.683 14.0052C36.249 13.6254 36 13.0767 36 12.5C36 11.9233 36.249 11.3746 36.683 10.9948L39.0742 8.90258L36.5858 6.41421C35.8047 5.63317 35.8047 4.36683 36.5858 3.58579Z" fill="black"/>
<path fill-rule="evenodd" clip-rule="evenodd" d="M38.5 32H9.5C7.01472 32 5 34.0147 5 36.5C5 38.9853 7.01472 41 9.5 41H38.5C40.9853 41 43 38.9853 43 36.5C43 34.0147 40.9853 32 38.5 32ZM9.5 28C4.80558 28 1 31.8056 1 36.5C1 41.1944 4.80558 45 9.5 45H38.5C43.1944 45 47 41.1944 47 36.5C47 31.8056 43.1944 28 38.5 28H9.5Z" fill="#4061FF"/>
</svg>
